<?xml version="1.0" encoding="UTF-8" standalone="no"?>
<!DOCTYPE svg PUBLIC "-//W3C//DTD SVG 1.1//EN"
 "http://www.w3.org/Graphics/SVG/1.1/DTD/svg11.dtd">
<!-- Generated by graphviz version 2.40.1 (20161225.0304)
 -->
<!-- Title: G Pages: 1 -->
<svg width="236pt" height="116pt"
 viewBox="0.00 0.00 235.50 116.00" xmlns="http://www.w3.org/2000/svg" xmlns:xlink="http://www.w3.org/1999/xlink">
<g id="graph0" class="graph" transform="scale(1 1) rotate(0) translate(4 112)">
<title>G</title>
<polygon fill="#ffffff" stroke="transparent" points="-4,4 -4,-112 231.5,-112 231.5,4 -4,4"/>
<!-- A0 -->
<g id="node1" class="node">
<title>A0</title>
<polygon fill="none" stroke="#000000" points=".5,-54 .5,-86 77.5,-86 77.5,-54 .5,-54"/>
<text text-anchor="start" x="10.2455" y="-67" font-family="Helvetica,sans-Serif" font-size="10.00" fill="#000000">+I:ICustomer</text>
<polygon fill="none" stroke="#000000" points=".5,-22 .5,-54 77.5,-54 77.5,-22 .5,-22"/>
<text text-anchor="start" x="23.1685" y="-35" font-family="Helvetica,sans-Serif" font-size="10.00" fill="#000000">Greet()</text>
</g>
<!-- A1 -->
<g id="node2" class="node">
<title>A1</title>
<polygon fill="none" stroke="#000000" points="95.5,-76 95.5,-108 227.5,-108 227.5,-76 95.5,-76"/>
<text text-anchor="start" x="136.914" y="-89" font-family="Helvetica,sans-Serif" font-size="10.00" fill="#000000">+Customer</text>
<polygon fill="none" stroke="#000000" points="95.5,-20 95.5,-76 227.5,-76 227.5,-20 95.5,-20"/>
<text text-anchor="start" x="132.4655" y="-57" font-family="Helvetica,sans-Serif" font-size="10.00" fill="#000000">+name:string</text>
<text text-anchor="start" x="105.391" y="-33" font-family="Helvetica,sans-Serif" font-size="10.00" fill="#000000">&#45;creditCardNumber:string</text>
<polygon fill="none" stroke="#000000" points="95.5,0 95.5,-20 227.5,-20 227.5,0 95.5,0"/>
</g>
</g>
</svg>
