<?xml version="1.0" encoding="UTF-8" standalone="no"?>
<!DOCTYPE svg PUBLIC "-//W3C//DTD SVG 1.1//EN"
 "http://www.w3.org/Graphics/SVG/1.1/DTD/svg11.dtd">
<!-- Generated by graphviz version 2.40.1 (20161225.0304)
 -->
<!-- Title: G Pages: 1 -->
<svg width="228pt" height="464pt"
 viewBox="0.00 0.00 227.50 464.00" xmlns="http://www.w3.org/2000/svg" xmlns:xlink="http://www.w3.org/1999/xlink">
<g id="graph0" class="graph" transform="scale(1 1) rotate(0) translate(4 460)">
<title>G</title>
<polygon fill="#ffffff" stroke="transparent" points="-4,4 -4,-460 223.5,-460 223.5,4 -4,4"/>
<!-- A0 -->
<g id="node1" class="node">
<title>A0</title>
<polygon fill="none" stroke="#000000" points="0,-310 0,-342 120,-342 120,-310 0,-310"/>
<text text-anchor="start" x="38.744" y="-323" font-family="Helvetica,sans-Serif" font-size="10.00" fill="#000000">+A:Skiing</text>
<polygon fill="none" stroke="#000000" points="0,-278 0,-310 120,-310 120,-278 0,-278"/>
<text text-anchor="start" x="9.5745" y="-291" font-family="Helvetica,sans-Serif" font-size="10.00" fill="#000000">+mountainName:string</text>
<polygon fill="none" stroke="#000000" points="0,-222 0,-278 120,-278 120,-222 0,-222"/>
<text text-anchor="start" x="38.47" y="-259" font-family="Helvetica,sans-Serif" font-size="10.00" fill="#000000">+Slide():a</text>
<text text-anchor="start" x="29.58" y="-235" font-family="Helvetica,sans-Serif" font-size="10.00" fill="#000000">+HaveFun():v</text>
<polygon fill="none" stroke="#000000" points="0,-202 0,-222 120,-222 120,-202 0,-202"/>
</g>
<!-- A3 -->
<g id="node4" class="node">
<title>A3</title>
<polygon fill="none" stroke="#000000" points="42,-120 42,-152 110,-152 110,-120 42,-120"/>
<text text-anchor="start" x="62.527" y="-133" font-family="Helvetica,sans-Serif" font-size="10.00" fill="#000000">+Skiis</text>
<polygon fill="none" stroke="#000000" points="42,-100 42,-120 110,-120 110,-100 42,-100"/>
<polygon fill="none" stroke="#000000" points="42,-20 42,-100 110,-100 110,-20 42,-20"/>
<text text-anchor="start" x="55.579" y="-81" font-family="Helvetica,sans-Serif" font-size="10.00" fill="#000000">+PutOn()</text>
<text text-anchor="start" x="51.9695" y="-57" font-family="Helvetica,sans-Serif" font-size="10.00" fill="#000000">+TakeOff()</text>
<text text-anchor="start" x="54.47" y="-33" font-family="Helvetica,sans-Serif" font-size="10.00" fill="#000000">+Slide():o</text>
<polygon fill="none" stroke="#000000" points="42,0 42,-20 110,-20 110,0 42,0"/>
</g>
<!-- A0&#45;&gt;A3 -->
<g id="edge2" class="edge">
<title>A0&#45;&gt;A3</title>
<path fill="none" stroke="#000000" stroke-dasharray="5,2" d="M66.5758,-191.447C67.64,-178.4095 68.7391,-164.9463 69.7942,-152.0209"/>
<polygon fill="#000000" stroke="#000000" points="65.7312,-201.7931 62.0598,-191.4601 66.138,-196.8097 66.5449,-191.8263 66.5449,-191.8263 66.5449,-191.8263 66.138,-196.8097 71.03,-192.1924 65.7312,-201.7931 65.7312,-201.7931"/>
</g>
<!-- A4 -->
<g id="node5" class="node">
<title>A4</title>
<polygon fill="none" stroke="#000000" points="136,-120 136,-152 204,-152 204,-120 136,-120"/>
<text text-anchor="start" x="154.5775" y="-133" font-family="Helvetica,sans-Serif" font-size="10.00" fill="#000000">+Poles</text>
<polygon fill="none" stroke="#000000" points="136,-100 136,-120 204,-120 204,-100 136,-100"/>
<polygon fill="none" stroke="#000000" points="136,-20 136,-100 204,-100 204,-20 136,-20"/>
<text text-anchor="start" x="149.579" y="-81" font-family="Helvetica,sans-Serif" font-size="10.00" fill="#000000">+PutOn()</text>
<text text-anchor="start" x="145.9695" y="-57" font-family="Helvetica,sans-Serif" font-size="10.00" fill="#000000">+TakeOff()</text>
<text text-anchor="start" x="148.47" y="-33" font-family="Helvetica,sans-Serif" font-size="10.00" fill="#000000">+Slide():o</text>
<polygon fill="none" stroke="#000000" points="136,0 136,-20 204,-20 204,0 136,0"/>
</g>
<!-- A0&#45;&gt;A4 -->
<g id="edge4" class="edge">
<title>A0&#45;&gt;A4</title>
<path fill="none" stroke="#000000" stroke-dasharray="5,2" d="M104.3608,-192.9571C114.8976,-174.1824 125.9761,-154.4426 135.9686,-136.6378"/>
<polygon fill="#000000" stroke="#000000" points="99.4018,-201.7931 100.3718,-190.8702 101.8489,-197.4329 104.296,-193.0726 104.296,-193.0726 104.296,-193.0726 101.8489,-197.4329 108.2203,-195.275 99.4018,-201.7931 99.4018,-201.7931"/>
</g>
<!-- A1 -->
<g id="node2" class="node">
<title>A1</title>
<polygon fill="none" stroke="#000000" points="139,-278 139,-310 220,-310 220,-278 139,-278"/>
<text text-anchor="start" x="148.7955" y="-291" font-family="Helvetica,sans-Serif" font-size="10.00" fill="#000000">+I:TakeAction</text>
<polygon fill="none" stroke="#000000" points="139,-234 139,-278 220,-278 220,-234 139,-234"/>
<text text-anchor="start" x="161.9985" y="-259" font-family="Helvetica,sans-Serif" font-size="10.00" fill="#000000">PutOn()</text>
<text text-anchor="start" x="156.9995" y="-247" font-family="Helvetica,sans-Serif" font-size="10.00" fill="#000000"> TakeOff()</text>
</g>
<!-- A1&#45;&gt;A3 -->
<g id="edge3" class="edge">
<title>A1&#45;&gt;A3</title>
<path fill="none" stroke="#000000" d="M154.1767,-224.7634C140.9415,-199.5779 124.4591,-168.2135 110.0456,-140.7857"/>
<polygon fill="none" stroke="#000000" points="151.1459,-226.52 158.8961,-233.7439 157.3424,-223.2636 151.1459,-226.52"/>
</g>
<!-- A1&#45;&gt;A4 -->
<g id="edge5" class="edge">
<title>A1&#45;&gt;A4</title>
<path fill="none" stroke="#000000" d="M176.7761,-223.5675C175.7892,-202.0765 174.6042,-176.2687 173.503,-152.2873"/>
<polygon fill="none" stroke="#000000" points="173.2882,-223.915 177.2433,-233.7439 180.2809,-223.5939 173.2882,-223.915"/>
</g>
<!-- A2 -->
<g id="node3" class="node">
<title>A2</title>
<polygon fill="none" stroke="#000000" points="22,-424 22,-456 98,-456 98,-424 22,-424"/>
<text text-anchor="start" x="31.5155" y="-437" font-family="Helvetica,sans-Serif" font-size="10.00" fill="#000000">+I:Adventure</text>
<polygon fill="none" stroke="#000000" points="22,-392 22,-424 98,-424 98,-392 22,-392"/>
<text text-anchor="start" x="36.389" y="-405" font-family="Helvetica,sans-Serif" font-size="10.00" fill="#000000">HaveFun()</text>
</g>
<!-- A2&#45;&gt;A0 -->
<g id="edge1" class="edge">
<title>A2&#45;&gt;A0</title>
<path fill="none" stroke="#000000" d="M60,-381.4156C60,-369.1669 60,-355.4724 60,-342.0285"/>
<polygon fill="none" stroke="#000000" points="56.5001,-381.7647 60,-391.7647 63.5001,-381.7647 56.5001,-381.7647"/>
</g>
</g>
</svg>
